# xmcd
#
# Track frame offsets: 
#        150
#        16132
#        28865
#        44214
#        56874
#        72760
#        85602
#        99261
#        113488
#        127645
#        141839
#        155939
#        171155
#        188026
#        203963
#        215881
#        228953
#        241343
#        259468
#        272690
#
# Disc length: 3869 seconds
#
# Revision: 0
# Processed by: cddbd v1.5.2PL0 Copyright (c) Steve Scherf et al.
# Submitted via: ExactAudioCopyFreeDBPlugin 1.0
#
DISCID=210f1b14
DTITLE=Voll auf die Zwölf - Voll auf die 12 - Après Ski Party Hits 201
DTITLE=1 [CD 1-2)
DYEAR=2011
DGENRE=Apres Ski
TTITLE0=Libero 5 - Sierra Madre
TTITLE1=Mallorca Boys - Die lustigen Holzhackerbuam
TTITLE2=Tommy - Joana... Du geile Sau
TTITLE3=Steffen Peter Haas - Got hatte einen Traum
TTITLE4=Clausi Cowski - Wir wolln die Eisbären sehn
TTITLE5=DJ Squansh - Kommt aus Euern Häusern raus
TTITLE6=Lollies - Arsch im Schnee
TTITLE7=DJ Hulpa feat Party-Atze - Kenn nicht deinen Namen (Scheißegal
TTITLE7=)
TTITLE8=Axel Fischer - Warum immer ich
TTITLE9=Lorenz Büffel - Schifoan
TTITLE10=Annina - Jetzt geht's auf die Piste
TTITLE11=Lou Bega - Sweet like Cola
TTITLE12=Marry - Ich liebe Dich
TTITLE13=Wir sind wir - Ein Diamant
TTITLE14=Tiffany - Ein bisschen Frieden (reloaded)
TTITLE15=Jürgen Milski - Wir sind wieder hier
TTITLE16=Danny Malle - Ich bin verliebt in die Liebe
TTITLE17=Colonia Deejays - Ein echter Pirat
TTITLE18=Rick Arena - Fliegen
TTITLE19=Südwind Buam - Mensch Meier
EXTD=
EXTT0=
EXTT1=
EXTT2=
EXTT3=
EXTT4=
EXTT5=
EXTT6=
EXTT7=
EXTT8=
EXTT9=
EXTT10=
EXTT11=
EXTT12=
EXTT13=
EXTT14=
EXTT15=
EXTT16=
EXTT17=
EXTT18=
EXTT19=
PLAYORDER=
